# xmcd CD database file
#
# Track frame offsets:
#	150
#	11326
#	26310
#	44735
#	54800
#	67779
#	85739
#	97768
#	114238
#	130386
#	146259
#	161881
#	175413
#	191542
#	200879
#	215401
#	227410
#	236907
#
# Disc length: 3359 seconds
#
# Revision: 0
# Processed by: cddbd v1.5.1PL0 Copyright (c) Steve Scherf et al.
# Submitted via: Feurio! 1.67 - http://www.feurio.com
#
DISCID=ea0d1d12
DTITLE=Lars and Dixi - Nütz jo nix...
DYEAR=1900
DGENRE=blues
TTITLE0=Blues op Platt
TTITLE1=Nütz jo nix
TTITLE2=Melanklüterig
TTITLE3=Mall in Kopp
TTITLE4=Bannig fix groggy
TTITLE5=De Klempner
TTITLE6=Bloots nich argern
TTITLE7=Röög Di
TTITLE8=De lange Dag
TTITLE9=Risiko
TTITLE10=Foffteihn
TTITLE11=Hummel, Hummel
TTITLE12=Speel Hart
TTITLE13=Ik wull bloots een
TTITLE14=Monika
TTITLE15=Seuter un Seuter
TTITLE16=Brägenklüterig
TTITLE17=Tschüüs
EXTD=Lars and Dixi bilden ein Bluesduo, das auf Platt singt.
EXTT0=
EXTT1=
EXTT2=
EXTT3=
EXTT4=
EXTT5=
EXTT6=
EXTT7=
EXTT8=
EXTT9=
EXTT10=
EXTT11=
EXTT12=
EXTT13=
EXTT14=
EXTT15=
EXTT16=
EXTT17=
PLAYORDER=
